<?xml version="1.0" encoding="UTF-8" standalone="no"?>
<svg width="16px" height="29px" viewBox="0 0 16 29" version="1.1" xmlns="http://www.w3.org/2000/svg" xmlns:xlink="http://www.w3.org/1999/xlink">
    <!-- Generator: Sketch 48.1 (47250) - http://www.bohemiancoding.com/sketch -->
    <title>0</title>
    <desc>Created with Sketch.</desc>
    <defs></defs>
    <g id="标注和切图" stroke="none" stroke-width="1" fill="none" fill-rule="evenodd" transform="translate(-1169.000000, -82.000000)">
        <path d="M1180.95647,102.546559 L1180.95647,90.4534413 C1180.87908,87.5964769 1179.55705,86.1419256 1176.99033,86.0897436 C1174.41071,86.1419256 1173.09512,87.5964769 1173.04353,90.4534413 L1173.04353,102.546559 C1173.09512,105.429614 1174.41071,106.884165 1176.99033,106.910256 C1179.55705,106.884165 1180.87908,105.429614 1180.95647,102.546559 Z M1169,102.781377 L1169,90.1990553 C1169.0258,87.5638645 1169.85771,85.5353198 1171.49577,84.1133603 C1173.03064,82.7044464 1174.86214,82 1176.99033,82 C1179.183,82 1181.04675,82.7044464 1182.58162,84.1133603 C1184.14229,85.5353198 1184.94841,87.5638645 1185,90.1990553 L1185,102.781377 C1184.94841,105.403522 1184.14229,107.425544 1182.58162,108.847503 C1181.04675,110.256417 1179.183,110.973909 1176.99033,111 C1174.86214,110.973909 1173.03064,110.256417 1171.49577,108.847503 C1169.85771,107.425544 1169.0258,105.403522 1169,102.781377 Z" id="0" fill="#C23ED6"></path>
    </g>
</svg>