<?xml version="1.0" encoding="UTF-8" standalone="no"?>
<svg width="16px" height="29px" viewBox="0 0 16 29" version="1.1" xmlns="http://www.w3.org/2000/svg" xmlns:xlink="http://www.w3.org/1999/xlink">
    <!-- Generator: Sketch 48.1 (47250) - http://www.bohemiancoding.com/sketch -->
    <title>2</title>
    <desc>Created with Sketch.</desc>
    <defs></defs>
    <g id="标注和切图" stroke="none" stroke-width="1" fill="none" fill-rule="evenodd" transform="translate(-1217.000000, -82.000000)">
        <path d="M1217,111 L1217,107.113605 L1227.95548,93.0673469 C1228.37906,92.5018112 1228.66787,91.9757394 1228.8219,91.4891156 C1228.92459,91.0287959 1228.97593,90.5947866 1228.97593,90.1870748 C1228.97593,89.1086114 1228.64862,88.168258 1227.99398,87.3659864 C1227.31367,86.5637148 1226.35099,86.1494332 1225.1059,86.1231293 C1224.002,86.1231293 1223.08424,86.4848036 1222.35259,87.2081633 C1221.59526,87.9315229 1221.14601,88.9507871 1221.00481,90.2659864 L1217,90.2659864 C1217.10269,87.8723236 1217.88567,85.8929783 1219.34898,84.3278912 C1220.82512,82.8022599 1222.64139,82.026304 1224.79783,82 C1227.211,82.026304 1229.16846,82.8154117 1230.67028,84.3673469 C1232.19776,85.9061301 1232.97433,87.8591718 1233,90.2265306 C1233,92.1204176 1232.43522,93.8038475 1231.30566,95.2768707 L1222.27557,106.876871 L1233,106.876871 L1233,111 L1217,111 Z" id="2" fill="#C23ED6"></path>
    </g>
</svg>