<?xml version="1.0" encoding="UTF-8" standalone="no"?>
<svg width="17px" height="29px" viewBox="0 0 17 29" version="1.1" xmlns="http://www.w3.org/2000/svg" xmlns:xlink="http://www.w3.org/1999/xlink">
    <!-- Generator: Sketch 48.1 (47250) - http://www.bohemiancoding.com/sketch -->
    <title>3</title>
    <desc>Created with Sketch.</desc>
    <defs></defs>
    <g id="标注和切图" stroke="none" stroke-width="1" fill="none" fill-rule="evenodd" transform="translate(-1240.000000, -82.000000)">
        <path d="M1246.61332,97.8697706 L1246.61332,94.2496626 L1248.04322,94.2496626 C1249.4599,94.2496626 1250.5588,93.8648262 1251.33995,93.0951417 C1252.12111,92.3515482 1252.51168,91.3861958 1252.51168,90.1990553 C1252.4852,88.9988694 1252.08139,88.013949 1251.30023,87.2442645 C1250.51908,86.500671 1249.51286,86.1158346 1248.28154,86.0897436 C1247.39447,86.0897436 1246.58684,86.3702176 1245.85864,86.9311741 C1245.09073,87.4921306 1244.57438,88.3596433 1244.30958,89.5337382 L1240.15888,89.5337382 C1240.37072,87.4203673 1241.23792,85.6396834 1242.76051,84.1916329 C1244.25663,82.756628 1246.04399,82.026091 1248.12266,82 C1250.75741,82.026091 1252.84929,82.8544678 1254.39836,84.4851552 C1255.88124,86.0767061 1256.6359,87.9552298 1256.66238,90.1207827 C1256.66238,91.2166047 1256.46379,92.2732743 1256.06659,93.2908232 C1255.60319,94.3083722 1254.77571,95.2150208 1253.58411,96.0107962 C1254.80219,96.7935262 1255.68263,97.732788 1256.22547,98.82861 C1256.74183,99.9244319 1257,101.072419 1257,102.272605 C1256.97352,104.946932 1256.1328,107.053748 1254.4778,108.593117 C1252.84929,110.171623 1250.75741,110.973909 1248.2021,111 C1246.22935,111 1244.48171,110.373825 1242.95911,109.121457 C1241.43652,107.86909 1240.45016,106.055792 1240,103.681511 L1244.1507,103.681511 C1244.52142,104.633833 1245.04439,105.403506 1245.71963,105.990553 C1246.4081,106.603692 1247.32165,106.910256 1248.46028,106.910256 C1249.67836,106.910256 1250.70444,106.499329 1251.53855,105.677463 C1252.38591,104.907778 1252.82282,103.811973 1252.8493,102.390013 C1252.82282,100.941963 1252.38591,99.820067 1251.53855,99.0242915 C1250.70444,98.254607 1249.64526,97.8697706 1248.36098,97.8697706 L1246.61332,97.8697706 Z" id="3" fill="#C23ED6"></path>
    </g>
</svg>