<?xml version="1.0" encoding="UTF-8" standalone="no"?>
<svg width="16px" height="29px" viewBox="0 0 16 29" version="1.1" xmlns="http://www.w3.org/2000/svg" xmlns:xlink="http://www.w3.org/1999/xlink">
    <!-- Generator: Sketch 48.1 (47250) - http://www.bohemiancoding.com/sketch -->
    <title>5</title>
    <desc>Created with Sketch.</desc>
    <defs></defs>
    <g id="标注和切图" stroke="none" stroke-width="1" fill="none" fill-rule="evenodd" transform="translate(-1289.000000, -82.000000)">
        <path d="M1289.5006,97.5455782 L1289.5006,82 L1304.46089,82 L1304.46089,86.1231293 L1293.29362,86.1231293 L1293.29362,92.6333333 C1294.60289,91.5811739 1296.09827,91.055102 1297.77978,91.055102 C1298.85801,91.081406 1299.84637,91.278683 1300.74489,91.6469388 C1301.59206,92.0546506 1302.27878,92.5544188 1302.80505,93.1462585 C1303.58805,93.9353781 1304.15283,94.8494279 1304.4994,95.8884354 C1304.6791,96.4539711 1304.80746,97.1444404 1304.88448,97.9598639 C1304.96149,98.7884395 1305,99.8077037 1305,101.017687 C1305,102.88527 1304.87164,104.318816 1304.61492,105.318367 C1304.34537,106.304767 1303.89611,107.179361 1303.26715,107.942177 C1302.7152,108.69184 1301.91296,109.375734 1300.86041,109.993878 C1299.83353,110.638325 1298.61413,110.973696 1297.20217,111 C1295.30244,111 1293.56318,110.421321 1291.98436,109.263946 C1290.37986,108.080266 1289.38508,106.16668 1289,103.523129 L1293.02407,103.523129 C1293.46049,105.732664 1294.80183,106.850567 1297.04813,106.876871 C1298.01084,106.876871 1298.78098,106.679594 1299.3586,106.285034 C1299.91055,105.903626 1300.29563,105.403858 1300.51384,104.785714 C1300.74489,104.167571 1300.88608,103.496829 1300.93742,102.773469 C1300.9631,102.063262 1300.97593,101.372792 1300.97593,100.702041 C1301.0016,99.0580417 1300.75131,97.7231344 1300.22503,96.6972789 C1299.94264,96.2106552 1299.52547,95.8226772 1298.97353,95.5333333 C1298.42158,95.2965975 1297.73486,95.1782313 1296.91336,95.1782313 C1296.18171,95.1782313 1295.51424,95.3492046 1294.91095,95.6911565 C1294.30766,96.0462603 1293.76855,96.6643947 1293.29362,97.5455782 L1289.5006,97.5455782 Z" id="5" fill="#C23ED6"></path>
    </g>
</svg>