<?xml version="1.0" encoding="UTF-8" standalone="no"?>
<svg width="16px" height="29px" viewBox="0 0 16 29" version="1.1" xmlns="http://www.w3.org/2000/svg" xmlns:xlink="http://www.w3.org/1999/xlink">
    <!-- Generator: Sketch 48.1 (47250) - http://www.bohemiancoding.com/sketch -->
    <title>6</title>
    <desc>Created with Sketch.</desc>
    <defs></defs>
    <g id="标注和切图" stroke="none" stroke-width="1" fill="none" fill-rule="evenodd" transform="translate(-1313.000000, -82.000000)">
        <path d="M1313,102.781377 L1313,90.1990553 C1313.02579,87.5638645 1313.85767,85.5353198 1315.49565,84.1133603 C1317.03045,82.7044464 1318.86186,82 1320.98994,82 C1322.89876,82 1324.59476,82.5479028 1326.07796,83.6437247 C1327.52248,84.7656376 1328.44464,86.3767326 1328.84446,88.477058 L1324.68505,88.477058 C1324.05307,86.9115981 1322.82138,86.1158346 1320.98994,86.0897436 C1318.41045,86.1419256 1317.09493,87.5964769 1317.04334,90.4534413 L1317.04334,93.134278 C1318.96506,92.5211395 1320.75778,92.2276202 1322.42155,92.2537112 C1324.27879,92.2537112 1325.85225,92.8798858 1327.142,94.1322537 C1328.40595,95.4107126 1329.02502,97.4262121 1328.99923,100.178812 L1328.99923,102.781377 C1328.94764,105.403522 1328.14156,107.425544 1326.58096,108.847503 C1325.04617,110.256417 1323.18251,110.973909 1320.98994,111 C1318.86186,110.973909 1317.03045,110.256417 1315.49565,108.847503 C1313.85767,107.425544 1313.02579,105.403522 1313,102.781377 Z M1317.04334,100.217949 L1317.04334,102.546559 C1317.09493,105.429614 1318.41045,106.884165 1320.98994,106.910256 C1323.55654,106.884165 1324.87851,105.429614 1324.95589,102.546559 L1324.95589,100.217949 C1324.87851,97.3609844 1323.55654,95.906433 1320.98994,95.854251 C1318.41045,95.906433 1317.09493,97.3609844 1317.04334,100.217949 Z" id="6" fill="#C23ED6"></path>
    </g>
</svg>