<?xml version="1.0" encoding="UTF-8" standalone="no"?>
<svg width="17px" height="29px" viewBox="0 0 17 29" version="1.1" xmlns="http://www.w3.org/2000/svg" xmlns:xlink="http://www.w3.org/1999/xlink">
    <!-- Generator: Sketch 48.1 (47250) - http://www.bohemiancoding.com/sketch -->
    <title>8</title>
    <desc>Created with Sketch.</desc>
    <defs></defs>
    <g id="标注和切图" stroke="none" stroke-width="1" fill="none" fill-rule="evenodd" transform="translate(-1361.000000, -82.000000)">
        <path d="M1365.51294,90.159919 C1365.53843,91.4775145 1365.95275,92.4820028 1366.75591,93.1734143 C1367.54631,93.8909168 1368.45781,94.2496626 1369.49044,94.2496626 C1370.56131,94.2496626 1371.49193,93.8909168 1372.28234,93.1734143 C1373.06,92.4820028 1373.46157,91.4775145 1373.48706,90.159919 C1373.46157,88.8031871 1373.06,87.7791308 1372.28234,87.0877193 C1371.49193,86.4223988 1370.56131,86.0897436 1369.49044,86.0897436 C1368.45781,86.0897436 1367.54631,86.4223988 1366.75591,87.0877193 C1365.95275,87.7791308 1365.53843,88.8031871 1365.51294,90.159919 Z M1361,102.42915 C1361.0255,99.6765494 1362.12185,97.5371196 1364.28909,96.0107962 C1363.46044,95.2672028 1362.81028,94.4127354 1362.33858,93.4473684 C1361.7904,92.547229 1361.51631,91.4775141 1361.51631,90.2381916 C1361.54181,87.8639108 1362.32583,85.9005926 1363.86839,84.3481781 C1365.32172,82.8088092 1367.19571,82.026091 1369.49044,82 C1371.82341,82.026091 1373.72928,82.8088092 1375.2081,84.3481781 C1376.69967,85.9005926 1377.45819,87.8639108 1377.48369,90.2381916 C1377.48369,91.4775141 1377.2351,92.547229 1376.73791,93.4473684 C1376.21522,94.4127354 1375.53956,95.2672028 1374.71091,96.0107962 C1376.87815,97.5371196 1377.9745,99.6765494 1378,102.42915 C1377.9745,104.999113 1377.15224,107.053748 1375.53318,108.593117 C1373.88863,110.171623 1371.8744,110.973909 1369.49044,111 C1367.11922,110.973909 1365.13687,110.171623 1363.54331,108.593117 C1361.87326,107.053748 1361.0255,104.999113 1361,102.42915 Z M1364.99663,102.390013 C1365.02212,103.694563 1365.48106,104.764278 1366.37345,105.59919 C1367.2276,106.473239 1368.26659,106.910256 1369.49044,106.910256 C1370.75254,106.910256 1371.81064,106.473239 1372.66479,105.59919 C1373.53169,104.764278 1373.97788,103.694563 1374.00337,102.390013 C1373.97788,101.059373 1373.53169,99.9766124 1372.66479,99.1417004 C1371.81064,98.3198339 1370.75254,97.8958616 1369.49044,97.8697706 C1368.26659,97.8958616 1367.2276,98.3198339 1366.37345,99.1417004 C1365.48106,99.9766124 1365.02212,101.059373 1364.99663,102.390013 Z" id="8" fill="#C23ED6"></path>
    </g>
</svg>