<?xml version="1.0" encoding="UTF-8" standalone="no"?>
<svg width="16px" height="29px" viewBox="0 0 16 29" version="1.1" xmlns="http://www.w3.org/2000/svg" xmlns:xlink="http://www.w3.org/1999/xlink">
    <!-- Generator: Sketch 48.1 (47250) - http://www.bohemiancoding.com/sketch -->
    <title>9</title>
    <desc>Created with Sketch.</desc>
    <defs></defs>
    <g id="标注和切图" stroke="none" stroke-width="1" fill="none" fill-rule="evenodd" transform="translate(-1385.000000, -82.000000)">
        <path d="M1385.00076,92.8211876 L1385.00076,90.1990553 C1385.02655,87.5638645 1385.85843,85.5353198 1387.49641,84.1133603 C1389.03121,82.7044464 1390.86262,82 1392.99071,82 C1395.18328,82 1397.04694,82.7044464 1398.58173,84.1133603 C1400.14233,85.5353198 1400.94841,87.5638645 1401,90.1990553 L1401,102.781377 C1400.94841,105.403522 1400.14233,107.425544 1398.58173,108.847503 C1397.04694,110.256417 1395.18328,110.973909 1392.99071,111 C1391.12057,110.973909 1389.45682,110.399916 1387.99941,109.278003 C1386.52909,108.182181 1385.58114,106.597176 1385.15553,104.522942 L1389.31494,104.522942 C1389.94692,106.114493 1391.17216,106.910256 1392.99071,106.910256 C1395.5573,106.884165 1396.87928,105.429614 1396.95666,102.546559 L1396.95666,99.865722 C1395.03494,100.47886 1393.24221,100.77238 1391.57844,100.746289 C1389.747,100.77238 1388.18643,100.13316 1386.89668,98.82861 C1385.60693,97.5631966 1384.97496,95.5607424 1385.00076,92.8211876 Z M1389.0441,90.4534413 L1389.0441,92.7820513 C1389.09569,95.6651066 1390.41121,97.119658 1392.99071,97.145749 C1395.5573,97.119658 1396.87928,95.6651066 1396.95666,92.7820513 L1396.95666,90.4534413 C1396.87928,87.5964769 1395.5573,86.1419256 1392.99071,86.0897436 C1390.41121,86.1419256 1389.09569,87.5964769 1389.0441,90.4534413 Z" id="9" fill="#C23ED6"></path>
    </g>
</svg>