<?xml version="1.0" encoding="UTF-8" standalone="no"?>
<svg width="10px" height="17px" viewBox="0 0 10 17" version="1.1" xmlns="http://www.w3.org/2000/svg" xmlns:xlink="http://www.w3.org/1999/xlink">
    <!-- Generator: Sketch 48.1 (47250) - http://www.bohemiancoding.com/sketch -->
    <title>0@1.5x</title>
    <desc>Created with Sketch.</desc>
    <defs></defs>
    <g id="app-切图和标注" stroke="none" stroke-width="1" fill="none" fill-rule="evenodd" transform="translate(-877.000000, -119.000000)">
        <path d="M884.472793,131.044534 L884.472793,123.955466 C884.424425,122.280693 883.598154,121.428025 881.993954,121.397436 C880.381693,121.428025 879.559452,122.280693 879.527207,123.955466 L879.527207,131.044534 C879.559452,132.734601 880.381693,133.587269 881.993954,133.602564 C883.598154,133.587269 884.424425,132.734601 884.472793,131.044534 Z M877,131.182186 L877,123.806343 C877.016123,122.261576 877.536069,121.072429 878.559855,120.238866 C879.51915,119.412951 880.663839,119 881.993954,119 C883.364376,119 884.529217,119.412951 885.488513,120.238866 C886.463931,121.072429 886.967755,122.261576 887,123.806343 L887,131.182186 C886.967755,132.719306 886.463931,133.904629 885.488513,134.738192 C884.529217,135.564107 883.364376,135.984705 881.993954,136 C880.663839,135.984705 879.51915,135.564107 878.559855,134.738192 C877.536069,133.904629 877.016123,132.719306 877,131.182186 Z" id="0" fill="#C23ED6"></path>
    </g>
</svg>