<?xml version="1.0" encoding="UTF-8" standalone="no"?>
<svg width="10px" height="17px" viewBox="0 0 10 17" version="1.1" xmlns="http://www.w3.org/2000/svg" xmlns:xlink="http://www.w3.org/1999/xlink">
    <!-- Generator: Sketch 48.1 (47250) - http://www.bohemiancoding.com/sketch -->
    <title>3@1.5x</title>
    <desc>Created with Sketch.</desc>
    <defs></defs>
    <g id="app-切图和标注" stroke="none" stroke-width="1" fill="none" fill-rule="evenodd" transform="translate(-919.000000, -119.000000)">
        <path d="M922.890187,128.302969 L922.890187,126.180837 L923.731308,126.180837 C924.564646,126.180837 925.211057,125.955243 925.670561,125.504049 C926.130065,125.068149 926.359813,124.502253 926.359813,123.806343 C926.344237,123.102786 926.1067,122.525418 925.647196,122.074224 C925.187692,121.638324 924.595798,121.412731 923.871495,121.397436 C923.349686,121.397436 922.874613,121.561852 922.446262,121.890688 C921.994546,122.219525 921.690811,122.728067 921.535047,123.416329 L919.093458,123.416329 C919.218069,122.177457 919.728189,121.133607 920.623832,120.28475 C921.503898,119.443541 922.55529,119.015295 923.778037,119 C925.327889,119.015295 926.558407,119.500895 927.469626,120.456815 C928.341905,121.389793 928.785825,122.490997 928.801402,123.760459 C928.801402,124.402837 928.684581,125.022264 928.450935,125.618758 C928.178348,126.215253 927.691592,126.746736 926.990654,127.213225 C927.707169,127.672067 928.225076,128.222669 928.544393,128.865047 C928.848132,129.507426 929,130.180383 929,130.883941 C928.984424,132.45165 928.48988,133.68668 927.516355,134.589069 C926.558406,135.5144 925.327889,135.984705 923.824766,136 C922.664324,136 921.636297,135.632932 920.740654,134.898785 C919.845011,134.164639 919.264799,133.101671 919,131.709852 L921.441589,131.709852 C921.659658,132.268109 921.967288,132.719297 922.364486,133.063428 C922.769472,133.422854 923.30685,133.602564 923.976636,133.602564 C924.69315,133.602564 925.296727,133.361676 925.787383,132.879892 C926.285828,132.428698 926.542835,131.786329 926.558411,130.952767 C926.542835,130.103909 926.285828,129.446246 925.787383,128.979757 C925.296727,128.528563 924.67368,128.302969 923.918224,128.302969 L922.890187,128.302969 Z" id="3" fill="#C23ED6"></path>
    </g>
</svg>