<?xml version="1.0" encoding="UTF-8" standalone="no"?>
<svg width="10px" height="17px" viewBox="0 0 10 17" version="1.1" xmlns="http://www.w3.org/2000/svg" xmlns:xlink="http://www.w3.org/1999/xlink">
    <!-- Generator: Sketch 48.1 (47250) - http://www.bohemiancoding.com/sketch -->
    <title>5@1.5x</title>
    <desc>Created with Sketch.</desc>
    <defs></defs>
    <g id="app-切图和标注" stroke="none" stroke-width="1" fill="none" fill-rule="evenodd" transform="translate(-948.000000, -119.000000)">
        <path d="M948.312876,128.112925 L948.312876,119 L957.663057,119 L957.663057,121.417007 L950.683514,121.417007 L950.683514,125.233333 C951.501809,124.61655 952.436417,124.308163 953.487365,124.308163 C954.161255,124.323583 954.778978,124.439228 955.340554,124.655102 C955.870039,124.894106 956.299236,125.187073 956.628159,125.534014 C957.117532,125.996601 957.470516,126.532423 957.687124,127.141497 C957.799439,127.473018 957.879663,127.877775 957.927798,128.355782 C957.975933,128.841499 958,129.438999 958,130.148299 C958,131.243089 957.919776,132.083444 957.759326,132.669388 C957.590854,133.247622 957.31007,133.760315 956.916968,134.207483 C956.572,134.646941 956.070601,135.047844 955.412756,135.410204 C954.770955,135.787984 954.008829,135.98458 953.126354,136 C951.939023,136 950.85199,135.660774 949.865223,134.982313 C948.86241,134.288432 948.240675,133.166674 948,131.617007 L950.515042,131.617007 C950.787807,132.912251 951.626146,133.567574 953.030084,133.582993 C953.631772,133.582993 954.113115,133.467348 954.474128,133.236054 C954.819095,133.012471 955.059767,132.719503 955.196149,132.357143 C955.340554,131.994783 955.4288,131.601589 955.46089,131.177551 C955.476935,130.761222 955.484958,130.356465 955.484958,129.963265 C955.501003,128.999542 955.344566,128.21701 955.015644,127.615646 C954.839149,127.330384 954.578421,127.102949 954.233454,126.933333 C953.888486,126.794557 953.459289,126.72517 952.945848,126.72517 C952.488566,126.72517 952.071402,126.825396 951.694344,127.02585 C951.317287,127.234015 950.980346,127.596369 950.683514,128.112925 L948.312876,128.112925 Z" id="5" fill="#C23ED6"></path>
    </g>
</svg>