<?xml version="1.0" encoding="UTF-8" standalone="no"?>
<svg width="10px" height="17px" viewBox="0 0 10 17" version="1.1" xmlns="http://www.w3.org/2000/svg" xmlns:xlink="http://www.w3.org/1999/xlink">
    <!-- Generator: Sketch 48.1 (47250) - http://www.bohemiancoding.com/sketch -->
    <title>8@1.5x</title>
    <desc>Created with Sketch.</desc>
    <defs></defs>
    <g id="app-切图和标注" stroke="none" stroke-width="1" fill="none" fill-rule="evenodd" transform="translate(-990.000000, -119.000000)">
        <path d="M992.654668,123.783401 C992.669666,124.555784 992.913383,125.144622 993.385827,125.549933 C993.850771,125.970537 994.386949,126.180837 994.994376,126.180837 C995.6243,126.180837 996.171726,125.970537 996.63667,125.549933 C997.094116,125.144622 997.330334,124.555784 997.345332,123.783401 C997.330334,122.988075 997.094116,122.387766 996.63667,121.982456 C996.171726,121.592441 995.6243,121.397436 994.994376,121.397436 C994.386949,121.397436 993.850771,121.592441 993.385827,121.982456 C992.913383,122.387766 992.669666,122.988075 992.654668,123.783401 Z M990,130.975709 C990.014998,129.362115 990.659911,128.107967 991.934758,127.213225 C991.447317,126.777326 991.064868,126.276431 990.787402,125.710526 C990.46494,125.182858 990.303712,124.555784 990.303712,123.829285 C990.31871,122.437465 990.779898,121.286554 991.687289,120.376518 C992.542187,119.47413 993.644538,119.015295 994.994376,119 C996.366711,119.015295 997.48781,119.47413 998.357705,120.376518 C999.2351,121.286554 999.68129,122.437465 999.696288,123.829285 C999.696288,124.555784 999.550058,125.182858 999.257593,125.710526 C998.95013,126.276431 998.552683,126.777326 998.065242,127.213225 C999.340089,128.107967 999.985002,129.362115 1000,130.975709 C999.985002,132.482239 999.501317,133.68668 998.548931,134.589069 C997.581547,135.5144 996.396707,135.984705 994.994376,136 C993.599543,135.984705 992.433451,135.5144 991.496063,134.589069 C990.513681,133.68668 990.014998,132.482239 990,130.975709 Z M992.350956,130.952767 C992.365954,131.717503 992.635918,132.344577 993.160855,132.834008 C993.663295,133.346381 994.274462,133.602564 994.994376,133.602564 C995.736787,133.602564 996.359203,133.346381 996.861642,132.834008 C997.371581,132.344577 997.634046,131.717503 997.649044,130.952767 C997.634046,130.172736 997.371581,129.538014 996.861642,129.048583 C996.359203,128.566799 995.736787,128.318264 994.994376,128.302969 C994.274462,128.318264 993.663295,128.566799 993.160855,129.048583 C992.635918,129.538014 992.365954,130.172736 992.350956,130.952767 Z" id="8" fill="#C23ED6"></path>
    </g>
</svg>