<?xml version="1.0" encoding="UTF-8" standalone="no"?>
<svg width="10px" height="17px" viewBox="0 0 10 17" version="1.1" xmlns="http://www.w3.org/2000/svg" xmlns:xlink="http://www.w3.org/1999/xlink">
    <!-- Generator: Sketch 48.1 (47250) - http://www.bohemiancoding.com/sketch -->
    <title>9@1.5x</title>
    <desc>Created with Sketch.</desc>
    <defs></defs>
    <g id="app-切图和标注" stroke="none" stroke-width="1" fill="none" fill-rule="evenodd" transform="translate(-1005.000000, -119.000000)">
        <path d="M1005.00047,125.343455 L1005.00047,123.806343 C1005.0166,122.261576 1005.53652,121.072429 1006.56026,120.238866 C1007.51951,119.412951 1008.66414,119 1009.99419,119 C1011.36455,119 1012.52933,119.412951 1013.48858,120.238866 C1014.46396,121.072429 1014.96776,122.261576 1015,123.806343 L1015,131.182186 C1014.96776,132.719306 1014.46396,133.904629 1013.48858,134.738192 C1012.52933,135.564107 1011.36455,135.984705 1009.99419,136 C1008.82536,135.984705 1007.78551,135.648226 1006.87463,134.990553 C1005.95568,134.348175 1005.36322,133.419034 1005.0972,132.203104 L1007.69684,132.203104 C1008.09182,133.136082 1008.8576,133.602564 1009.99419,133.602564 C1011.59832,133.587269 1012.42455,132.734601 1012.47291,131.044534 L1012.47291,129.473009 C1011.27184,129.832435 1010.15138,130.004499 1009.11152,129.989204 C1007.96687,130.004499 1006.99152,129.629783 1006.18542,128.865047 C1005.37933,128.123253 1004.98435,126.949401 1005.00047,125.343455 Z M1007.52756,123.955466 L1007.52756,125.320513 C1007.5598,127.01058 1008.38201,127.863248 1009.99419,127.878543 C1011.59832,127.863248 1012.42455,127.01058 1012.47291,125.320513 L1012.47291,123.955466 C1012.42455,122.280693 1011.59832,121.428025 1009.99419,121.397436 C1008.38201,121.428025 1007.5598,122.280693 1007.52756,123.955466 Z" id="9" fill="#C23ED6"></path>
    </g>
</svg>