<?xml version="1.0" encoding="UTF-8"?>
<svg width="18px" height="20px" viewBox="0 0 18 20" version="1.1" xmlns="http://www.w3.org/2000/svg" xmlns:xlink="http://www.w3.org/1999/xlink">
    <!-- Generator: Sketch 49 (51002) - http://www.bohemiancoding.com/sketch -->
    <title>ic-baoming</title>
    <desc>Created with Sketch.</desc>
    <defs></defs>
    <g id="Page-1" stroke="none" stroke-width="1" fill="none" fill-rule="evenodd">
        <g id="icons" transform="translate(-67.000000, -66.000000)" fill="#000000">
            <path d="M67,67.9907951 C67,66.8913093 67.8926228,66 68.9950893,66 L83.0049107,66 C84.1067681,66 85,66.8982124 85,67.9907951 L85,84.0092049 C85,85.1086907 84.1073772,86 83.0049107,86 L68.9950893,86 C67.8932319,86 67,85.1017876 67,84.0092049 L67,67.9907951 Z M71.75,70 C71.3357864,70 71,70.3357864 71,70.75 C71,71.1642136 71.3357864,71.5 71.75,71.5 L80.25,71.5 C80.6642136,71.5 81,71.1642136 81,70.75 C81,70.3357864 80.6642136,70 80.25,70 L71.75,70 Z M71.75,73 C71.3357864,73 71,73.3357864 71,73.75 C71,74.1642136 71.3357864,74.5 71.75,74.5 L77.25,74.5 C77.6642136,74.5 78,74.1642136 78,73.75 C78,73.3357864 77.6642136,73 77.25,73 L71.75,73 Z M71.5,80 C71.2238576,80 71,80.2238576 71,80.5 L71,82.5 C71,82.7761424 71.2238576,83 71.5,83 L80.5,83 C80.7761424,83 81,82.7761424 81,82.5 L81,80.5 C81,80.2238576 80.7761424,80 80.5,80 L71.5,80 Z" id="ic-baoming"></path>
        </g>
    </g>
</svg>