<?xml version="1.0" encoding="UTF-8"?>
<svg width="18px" height="20px" viewBox="0 0 18 20" version="1.1" xmlns="http://www.w3.org/2000/svg" xmlns:xlink="http://www.w3.org/1999/xlink">
    <!-- Generator: Sketch 49 (51002) - http://www.bohemiancoding.com/sketch -->
    <title>ic-rencai</title>
    <desc>Created with Sketch.</desc>
    <defs></defs>
    <g id="Page-1" stroke="none" stroke-width="1" fill="none" fill-rule="evenodd">
        <g id="icons" transform="translate(-260.000000, -66.000000)" fill="#000000">
            <path d="M260,67.9907951 C260,66.8913093 260.892623,66 261.995089,66 L276.004911,66 C277.106768,66 278,66.8982124 278,67.9907951 L278,84.0092049 C278,85.1086907 277.107377,86 276.004911,86 L261.995089,86 C260.893232,86 260,85.1017876 260,84.0092049 L260,67.9907951 Z M269,74 C269.828427,74 270.5,73.3284271 270.5,72.5 C270.5,71.6715729 269.828427,71 269,71 C268.171573,71 267.5,71.6715729 267.5,72.5 C267.5,73.3284271 268.171573,74 269,74 Z M269,75.5 C267.343146,75.5 266,74.1568542 266,72.5 C266,70.8431458 267.343146,69.5 269,69.5 C270.656854,69.5 272,70.8431458 272,72.5 C272,74.1568542 270.656854,75.5 269,75.5 Z M270,76.5 L268,76.5 C266.236764,76.5 264.778059,77.8038529 264.535444,79.5 L273.464556,79.5 C273.221941,77.8038529 271.763236,76.5 270,76.5 Z M263,81 L263,80 C263,77.4444979 264.91716,75.3367723 267.391669,75.0366334 C267.476602,75.0263316 267.934863,75.4986816 269,75.4986816 C270.101587,75.4986816 270.485258,75.0219594 270.597772,75.035364 C273.077384,75.3307792 275,77.4408641 275,80 L275,81 L263,81 Z" id="ic-rencai"></path>
        </g>
    </g>
</svg>