<?xml version="1.0" encoding="UTF-8"?>
<svg width="20px" height="20px" viewBox="0 0 20 20" version="1.1" xmlns="http://www.w3.org/2000/svg" xmlns:xlink="http://www.w3.org/1999/xlink">
    <!-- Generator: Sketch 49 (51002) - http://www.bohemiancoding.com/sketch -->
    <title>ic-shiyong</title>
    <desc>Created with Sketch.</desc>
    <defs></defs>
    <g id="Page-1" stroke="none" stroke-width="1" fill="none" fill-rule="evenodd">
        <g id="icons" transform="translate(-127.000000, -66.000000)" fill="#000000">
            <path d="M137,86 C131.477153,86 127,81.5228475 127,76 C127,70.4771525 131.477153,66 137,66 C142.522847,66 147,70.4771525 147,76 C147,81.5228475 142.522847,86 137,86 Z M137,70 C136.447715,70 136,70.4477153 136,71 L136,77 C136,77.5522847 136.447715,78 137,78 C137.552285,78 138,77.5522847 138,77 L138,71 C138,70.4477153 137.552285,70 137,70 Z M137,79 C136.447715,79 136,79.4477153 136,80 L136,81 C136,81.5522847 136.447715,82 137,82 C137.552285,82 138,81.5522847 138,81 L138,80 C138,79.4477153 137.552285,79 137,79 Z" id="ic-shiyong"></path>
        </g>
    </g>
</svg>