<?xml version="1.0" encoding="UTF-8"?>
<svg width="20px" height="20px" viewBox="0 0 20 20" version="1.1" xmlns="http://www.w3.org/2000/svg" xmlns:xlink="http://www.w3.org/1999/xlink">
    <!-- Generator: Sketch 49 (51002) - http://www.bohemiancoding.com/sketch -->
    <title>ic-wenti</title>
    <desc>Created with Sketch.</desc>
    <defs></defs>
    <g id="Page-1" stroke="none" stroke-width="1" fill="none" fill-rule="evenodd">
        <g id="icons" transform="translate(-215.000000, -66.000000)" fill="#000000">
            <path d="M225,86 C219.477153,86 215,81.5228475 215,76 C215,70.4771525 219.477153,66 225,66 C230.522847,66 235,70.4771525 235,76 C235,81.5228475 230.522847,86 225,86 Z M223.882813,78.0546875 L223.882813,78.5234375 L225.367188,78.5234375 L225.367188,78.1640625 C225.367188,77.8083348 225.429057,77.5453898 225.54395,77.37305 C225.669586,77.1845954 226.05794,76.8315468 226.692548,76.3379631 C227.373345,75.808454 227.822835,75.3494002 228.043273,74.9486047 C228.26528,74.5449556 228.375,74.0661762 228.375,73.515625 C228.375,72.6773025 228.069851,71.9958029 227.464734,71.4915384 C226.867875,70.9941561 226.027978,70.75 224.953125,70.75 C223.967097,70.75 222.947218,70.9955263 221.894722,71.4841853 L221.661302,71.5925588 L222.376658,73.0232712 L222.596351,72.9225787 C223.440057,72.5358801 224.24351,72.34375 225.007813,72.34375 C225.573686,72.34375 225.991677,72.4643242 226.269641,72.6959616 C226.541774,72.9227385 226.671875,73.1901689 226.671875,73.515625 C226.671875,73.9108714 226.599966,74.2224775 226.461408,74.4534073 C226.318274,74.6919648 225.964018,75.0289398 225.404688,75.4484375 C224.797146,75.9040937 224.3935,76.2981287 224.190766,76.6427762 C223.98299,76.9959969 223.882813,77.4668292 223.882813,78.0546875 Z M225.804688,80.3515625 C225.804688,79.9631135 225.712558,79.6636919 225.512714,79.4638483 C225.314813,79.2659469 225.032597,79.171875 224.679688,79.171875 C224.322152,79.171875 224.04413,79.2685783 223.862637,79.4759988 C223.68834,79.6751951 223.609375,79.968495 223.609375,80.3515625 C223.609375,80.7304696 223.686786,81.0290556 223.853443,81.2433289 C224.033734,81.4751313 224.316905,81.5859375 224.679688,81.5859375 C225.037951,81.5859375 225.325205,81.4782172 225.52279,81.2559347 C225.714497,81.0402638 225.804688,80.7358719 225.804688,80.3515625 Z" id="ic-wenti"></path>
        </g>
    </g>
</svg>