<?xml version="1.0" encoding="UTF-8"?>
<svg width="18px" height="20px" viewBox="0 0 18 20" version="1.1" xmlns="http://www.w3.org/2000/svg" xmlns:xlink="http://www.w3.org/1999/xlink">
    <!-- Generator: Sketch 49 (51002) - http://www.bohemiancoding.com/sketch -->
    <title>ic-xiazai</title>
    <desc>Created with Sketch.</desc>
    <defs></defs>
    <g id="Page-1" stroke="none" stroke-width="1" fill="none" fill-rule="evenodd">
        <g id="icons" transform="translate(-172.000000, -66.000000)" fill="#000000">
            <path d="M182,76 L182,69.5 C182,69.2238576 181.776142,69 181.5,69 L180.5,69 C180.223858,69 180,69.2238576 180,69.5 L180,76 L178.199997,76 C177.923855,76 177.699997,76.2238576 177.699997,76.5 C177.699997,76.625695 177.747339,76.7467789 177.832595,76.8391401 L180.690603,79.9353148 C180.877905,80.1382252 181.194234,80.1508784 181.397144,79.9635765 C181.406938,79.9545364 181.416366,79.9451083 181.425406,79.9353148 L184.283414,76.8391401 C184.470715,76.6362297 184.458062,76.3199002 184.255152,76.1325983 C184.162791,76.0473419 184.041707,76 183.916012,76 L182,76 Z M174,66 L188,66 C189.104569,66 190,66.8954305 190,68 L190,84 C190,85.1045695 189.104569,86 188,86 L174,86 C172.895431,86 172,85.1045695 172,84 L172,68 C172,66.8954305 172.895431,66 174,66 Z M176.5,82 L185.5,82 C185.776142,82 186,81.7761424 186,81.5 C186,81.2238576 185.776142,81 185.5,81 L176.5,81 C176.223858,81 176,81.2238576 176,81.5 C176,81.7761424 176.223858,82 176.5,82 Z" id="ic-xiazai"></path>
        </g>
    </g>
</svg>