<?xml version="1.0" encoding="UTF-8" standalone="no"?>
<svg width="17px" height="4px" viewBox="0 0 17 4" version="1.1" xmlns="http://www.w3.org/2000/svg" xmlns:xlink="http://www.w3.org/1999/xlink">
    <!-- Generator: Sketch 48.1 (47250) - http://www.bohemiancoding.com/sketch -->
    <title>diandian</title>
    <desc>Created with Sketch.</desc>
    <defs></defs>
    <g id="icon" stroke="none" stroke-width="1" fill="none" fill-rule="evenodd" transform="translate(-150.000000, -33.000000)">
        <path d="M152,37 C150.895431,37 150,36.1045695 150,35 C150,33.8954305 150.895431,33 152,33 C153.104569,33 154,33.8954305 154,35 C154,36.1045695 153.104569,37 152,37 Z M158.5,37 C157.395431,37 156.5,36.1045695 156.5,35 C156.5,33.8954305 157.395431,33 158.5,33 C159.604569,33 160.5,33.8954305 160.5,35 C160.5,36.1045695 159.604569,37 158.5,37 Z M165,37 C163.895431,37 163,36.1045695 163,35 C163,33.8954305 163.895431,33 165,33 C166.104569,33 167,33.8954305 167,35 C167,36.1045695 166.104569,37 165,37 Z" id="diandian" fill="#FF6C00"></path>
    </g>
</svg>