<?xml version="1.0" encoding="UTF-8" standalone="no"?>
<svg width="22px" height="24px" viewBox="0 0 22 24" version="1.1" xmlns="http://www.w3.org/2000/svg" xmlns:xlink="http://www.w3.org/1999/xlink">
    <!-- Generator: Sketch 48.1 (47250) - http://www.bohemiancoding.com/sketch -->
    <title>dingdan</title>
    <desc>Created with Sketch.</desc>
    <defs>
        <linearGradient x1="52.8638469%" y1="100%" x2="50%" y2="0%" id="linearGradient-1">
            <stop stop-color="#FF3800" offset="0%"></stop>
            <stop stop-color="#FF6C00" offset="100%"></stop>
        </linearGradient>
    </defs>
    <g id="icon" stroke="none" stroke-width="1" fill="none" fill-rule="evenodd" transform="translate(-189.000000, -96.000000)">
        <path d="M193.000272,96 C193.000091,96.0110781 193,96.0221782 193,96.0332994 C193,97.1378689 193.895431,98.0332994 195,98.0332994 L205,98.0332994 C206.104569,98.0332994 207,97.1378689 207,96.0332994 C207,96.0221782 206.999909,96.0110781 206.999728,96 L209,96 C210.104569,96 211,96.8954305 211,98 L211,118 C211,119.104569 210.104569,120 209,120 L191,120 C189.895431,120 189,119.104569 189,118 L189,98 C189,96.8954305 189.895431,96 191,96 L193.000272,96 Z M195,104 C194.447715,104 194,104.447715 194,105 C194,105.552285 194.447715,106 195,106 L205,106 C205.552285,106 206,105.552285 206,105 C206,104.447715 205.552285,104 205,104 L195,104 Z M195,110 C194.447715,110 194,110.447715 194,111 C194,111.552285 194.447715,112 195,112 L201,112 C201.552285,112 202,111.552285 202,111 C202,110.447715 201.552285,110 201,110 L195,110 Z" id="dingdan" fill="url(#linearGradient-1)"></path>
    </g>
</svg>