<?xml version="1.0" encoding="UTF-8" standalone="no"?>
<svg width="15px" height="20px" viewBox="0 0 15 20" version="1.1" xmlns="http://www.w3.org/2000/svg" xmlns:xlink="http://www.w3.org/1999/xlink">
    <!-- Generator: Sketch 48.1 (47250) - http://www.bohemiancoding.com/sketch -->
    <title>dizhiguanli</title>
    <desc>Created with Sketch.</desc>
    <defs></defs>
    <g id="icon" stroke="none" stroke-width="1" fill="none" fill-rule="evenodd" transform="translate(-72.000000, -142.000000)">
        <path d="M85.5454545,149.327273 C85.5454545,147.69298 84.8836476,146.165544 83.7316254,145.051975 L84.5656316,144.189169 C85.949216,145.526571 86.7454545,147.364273 86.7454545,149.327273 C86.7454545,151.921548 84.5157195,155.935071 80.0681865,161.484326 C79.8279983,161.784013 79.3720017,161.784013 79.1318135,161.484326 C74.6842805,155.935071 72.4545455,151.921548 72.4545455,149.327273 C72.4545455,145.380947 75.6536744,142.181818 79.6,142.181818 C80.6570433,142.181818 81.682679,142.411893 82.6204827,142.849888 L82.1126842,143.937151 C81.3330586,143.573032 80.4806589,143.381818 79.6,143.381818 C76.3164161,143.381818 73.6545455,146.043689 73.6545455,149.327273 C73.6545455,151.470237 75.6328119,155.110744 79.6,160.144818 C83.5671881,155.110744 85.5454545,151.470237 85.5454545,149.327273 Z M79.6,151.945455 C78.1540181,151.945455 76.9818182,150.773255 76.9818182,149.327273 C76.9818182,147.881291 78.1540181,146.709091 79.6,146.709091 C81.0459819,146.709091 82.2181818,147.881291 82.2181818,149.327273 C82.2181818,150.773255 81.0459819,151.945455 79.6,151.945455 Z M79.6,150.745455 C80.3832402,150.745455 81.0181818,150.110513 81.0181818,149.327273 C81.0181818,148.544033 80.3832402,147.909091 79.6,147.909091 C78.8167598,147.909091 78.1818182,148.544033 78.1818182,149.327273 C78.1818182,150.110513 78.8167598,150.745455 79.6,150.745455 Z" id="dizhiguanli" fill="#6D6D6E" fill-rule="nonzero"></path>
    </g>
</svg>