<?xml version="1.0" encoding="UTF-8" standalone="no"?>
<svg width="18px" height="20px" viewBox="0 0 18 20" version="1.1" xmlns="http://www.w3.org/2000/svg" xmlns:xlink="http://www.w3.org/1999/xlink">
    <!-- Generator: Sketch 48.1 (47250) - http://www.bohemiancoding.com/sketch -->
    <title>kefudianhua</title>
    <desc>Created with Sketch.</desc>
    <defs></defs>
    <g id="icon" stroke="none" stroke-width="1" fill="none" fill-rule="evenodd" transform="translate(-187.000000, -142.000000)">
        <path d="M196.923672,156.288238 C197.143764,156.320634 197.327866,156.472147 197.402001,156.681895 L199.260809,161.940963 C199.343575,162.175129 199.273513,162.436084 199.084593,162.597308 C197.39057,164.042978 195.875362,164.4971 194.587113,163.819397 C191.556243,162.224962 189.809545,157.846525 190.08287,152.442482 C190.350792,147.145265 191.71503,143.808684 194.727857,141.850447 C195.612911,141.275192 196.410558,141.135181 197.280082,141.195717 C197.372877,141.202555 197.40029,141.204563 197.417329,141.205358 C198.147348,141.239428 198.932973,141.802083 199.864416,142.858159 L198.964446,143.651918 C198.233021,142.822624 197.668597,142.418391 197.361386,142.404053 C197.3258,142.402392 197.27925,142.398984 197.19674,142.392819 C196.564159,142.34878 196.014738,142.445219 195.381819,142.856595 C192.752778,144.565384 191.531772,147.551657 191.281338,152.503098 C191.029267,157.486924 192.596899,161.416497 195.1458,162.757385 C195.846474,163.125985 196.781704,162.891368 197.989107,161.943929 L196.391115,157.422779 L194.147669,157.092558 C193.89456,157.055302 193.692916,156.861651 193.645457,156.610256 C193.325988,154.917971 193.206722,153.394533 193.289853,152.038607 C193.374007,150.666013 193.669718,149.405688 194.17823,148.260866 C194.277591,148.037172 194.50287,147.89626 194.747489,147.904794 L196.85492,147.978314 L198.570729,144.654159 L199.637058,145.20456 L197.746949,148.866399 C197.640524,149.072584 197.424755,149.198923 197.192865,149.190834 L195.120575,149.11854 C194.765367,150.030448 194.554095,151.027549 194.487604,152.112041 C194.417732,153.251696 194.504348,154.537405 194.749116,155.968157 L196.923672,156.288238 Z" id="kefudianhua" fill="#6D6D6E" fill-rule="nonzero" transform="translate(194.959658, 152.655170) rotate(-45.000000) translate(-194.959658, -152.655170) "></path>
    </g>
</svg>