<?xml version="1.0" encoding="UTF-8" standalone="no"?>
<svg width="20px" height="19px" viewBox="0 0 20 19" version="1.1" xmlns="http://www.w3.org/2000/svg" xmlns:xlink="http://www.w3.org/1999/xlink">
    <!-- Generator: Sketch 48.1 (47250) - http://www.bohemiancoding.com/sketch -->
    <title>shouye</title>
    <desc>Created with Sketch.</desc>
    <defs></defs>
    <g id="icon" stroke="none" stroke-width="1" fill="none" fill-rule="evenodd" transform="translate(-68.000000, -96.000000)">
        <path d="M75.6701543,110.137891 L75.6701543,113.783879 C75.6701543,114.455524 75.0944797,115 74.3843491,115 L71.2984166,115 C70.588286,115 70.0126114,114.455524 70.0126114,113.783879 L70.0126114,105.51426 C70.0126114,105.111273 70.3580162,104.784587 70.7840946,104.784587 C71.2101729,104.784587 71.5555777,105.111273 71.5555777,105.51426 L71.5555777,113.540655 L74.127188,113.540655 L74.127188,109.894666 C74.127188,109.223022 74.7028626,108.678546 75.4129932,108.678546 L80.556214,108.678546 C81.2663446,108.678546 81.8420191,109.223022 81.8420191,109.894666 L81.8420191,113.540655 L84.4136295,113.540655 L84.4136295,105.51426 C84.4136295,105.111273 84.7590343,104.784587 85.1851126,104.784587 C85.611191,104.784587 85.9565957,105.111273 85.9565957,105.51426 L85.9565957,113.783879 C85.9565957,114.455524 85.3809211,115 84.6707906,115 L81.5848581,115 C80.8747275,115 80.2990529,114.455524 80.2990529,113.783879 L80.2990529,110.137891 L75.6701543,110.137891 Z M69.2945206,104.683498 C68.9878833,104.945182 68.5129806,104.896528 68.2337958,104.574826 C67.954611,104.253124 67.9768657,103.780197 68.2835031,103.518513 L76.5067187,96.5008281 C76.8400599,96.2163551 77.0591663,96.0881023 77.3498401,96.0145157 C77.6312736,95.9432683 77.923613,95.9509359 78.2095127,96.0371567 C78.5052519,96.1263448 78.7321896,96.2667691 79.0815957,96.5697155 L87.6845099,104.02872 C88.0063387,104.307756 88.0552222,104.782648 87.7936943,105.089421 C87.5321664,105.396194 87.0592624,105.418679 86.7374336,105.139643 L78.1345193,97.680638 C77.9426927,97.5143181 77.9004186,97.4881597 77.8503715,97.4730667 C77.8293859,97.4667379 77.8146024,97.4663501 77.7935862,97.4716706 C77.7434717,97.4843575 77.7017399,97.508785 77.5177363,97.6658136 L69.2945206,104.683498 Z" id="shouye" fill="#9D9D9E" fill-rule="nonzero"></path>
    </g>
</svg>