<?xml version="1.0" encoding="UTF-8" standalone="no"?>
<svg width="12px" height="12px" viewBox="0 0 12 12" version="1.1" xmlns="http://www.w3.org/2000/svg" xmlns:xlink="http://www.w3.org/1999/xlink">
    <!-- Generator: Sketch 48.1 (47250) - http://www.bohemiancoding.com/sketch -->
    <title>sousuo</title>
    <desc>Created with Sketch.</desc>
    <defs></defs>
    <g id="icon" stroke="none" stroke-width="1" fill="none" fill-rule="evenodd" transform="translate(-28.000000, -29.000000)">
        <path d="M36.6311847,36.8709708 L40,40.3067603 L39.3202737,41 L35.9748448,37.5880618 C35.1289066,38.3450062 34.0201929,38.8038893 32.8063905,38.8038893 C30.1518943,38.8038893 28,36.6092139 28,33.9019447 C28,31.1946754 30.1518943,29 32.8063905,29 C35.4608867,29 37.612781,31.1946754 37.612781,33.9019447 C37.612781,35.0180195 37.2470644,36.0469785 36.6311847,36.8709708 Z M32.8063905,37.8235004 C34.9299874,37.8235004 36.6515029,36.0677601 36.6515029,33.9019447 C36.6515029,31.7361292 34.9299874,29.9803889 32.8063905,29.9803889 C30.6827936,29.9803889 28.9612781,31.7361292 28.9612781,33.9019447 C28.9612781,36.0677601 30.6827936,37.8235004 32.8063905,37.8235004 Z" id="sousuo" fill="#6D6D6E" fill-rule="nonzero"></path>
    </g>
</svg>