<?xml version="1.0" encoding="UTF-8" standalone="no"?>
<svg width="20px" height="20px" viewBox="0 0 20 20" version="1.1" xmlns="http://www.w3.org/2000/svg" xmlns:xlink="http://www.w3.org/1999/xlink">
    <!-- Generator: Sketch 48.1 (47250) - http://www.bohemiancoding.com/sketch -->
    <title>wode-huise</title>
    <desc>Created with Sketch.</desc>
    <defs></defs>
    <g id="icon" stroke="none" stroke-width="1" fill="none" fill-rule="evenodd" transform="translate(-150.000000, -58.000000)">
        <path d="M162.899136,68.4505502 C162.174102,68.8025677 161.360107,69 160.5,69 C157.462434,69 155,66.5375661 155,63.5 C155,60.4624339 157.462434,58 160.5,58 C163.537566,58 166,60.4624339 166,63.5 C166,65.2257886 165.205144,66.7659288 163.961553,67.7743002 C167.569381,69.2519573 170,72.6500104 170,76.5 C170,76.855308 169.979447,77.2083226 169.93865,77.5579497 L169.887069,78 L150.112931,78 L150.06135,77.5579497 C150.020553,77.2083226 150,76.855308 150,76.5 C150,73.4442611 151.529119,70.6324109 154.064509,68.8535157 L154.638865,69.672122 C152.364815,71.2676535 151,73.7773706 151,76.5 C151,76.6673354 151.005114,76.8340464 151.015299,77 L168.984701,77 C168.994886,76.8340464 169,76.6673354 169,76.5 C169,72.8323567 166.515913,69.6115337 162.899136,68.4505502 Z M160.5,68 C162.985281,68 165,65.9852814 165,63.5 C165,61.0147186 162.985281,59 160.5,59 C158.014719,59 156,61.0147186 156,63.5 C156,65.9852814 158.014719,68 160.5,68 Z" id="wode-huise" fill="#6D6D6E" fill-rule="nonzero"></path>
    </g>
</svg>