<?xml version="1.0" encoding="UTF-8" standalone="no"?>
<svg width="20px" height="22px" viewBox="0 0 20 22" version="1.1" xmlns="http://www.w3.org/2000/svg" xmlns:xlink="http://www.w3.org/1999/xlink">
    <!-- Generator: Sketch 48.1 (47250) - http://www.bohemiancoding.com/sketch -->
    <title>wodepingjia</title>
    <desc>Created with Sketch.</desc>
    <defs></defs>
    <g id="icon" stroke="none" stroke-width="1" fill="none" fill-rule="evenodd" transform="translate(-30.000000, -141.000000)">
        <path d="M48.080436,142.290909 L31.8070755,142.290909 L31.8070755,141.090909 L48.1895269,141.090909 C48.7920194,141.090909 49.280436,141.579326 49.280436,142.181818 L49.280436,161.818182 C49.280436,162.420674 48.7920194,162.909091 48.1895269,162.909091 L31.8258905,162.909091 C31.2233981,162.909091 30.7349815,162.420674 30.7349815,161.818182 L30.7349815,143.806679 L31.9349815,143.806679 L31.9349815,161.709091 L48.080436,161.709091 L48.080436,142.290909 Z M39.7792685,152.525236 L37.4014222,153.775344 C36.9612457,154.006759 36.4467863,153.632982 36.5308525,153.142838 L36.9849807,150.495067 C37.0122939,150.335819 36.9594974,150.173328 36.8437969,150.060548 L34.9200788,148.185387 C34.5639686,147.838265 34.7604746,147.233482 35.2526068,147.161971 L37.9111199,146.775666 C38.071014,146.752432 38.2092371,146.652007 38.2807439,146.507118 L39.4696671,144.098097 C39.6897553,143.65215 40.3256622,143.65215 40.5457504,144.098097 L41.7346736,146.507118 C41.8061804,146.652007 41.9444035,146.752432 42.1042975,146.775666 L44.7628106,147.161971 C45.2549428,147.233482 45.4514488,147.838265 45.0953386,148.185387 L43.1716205,150.060548 C43.0559201,150.173328 43.0031235,150.335819 43.0304367,150.495067 L43.484565,153.142838 C43.5686312,153.632982 43.0541717,154.006759 42.6139953,153.775344 L40.2361489,152.525236 C40.0931353,152.45005 39.9222821,152.45005 39.7792685,152.525236 Z M39.2208592,151.463079 C39.7134616,151.204102 40.3019558,151.204102 40.7945583,151.463079 L42.0963213,152.147456 L41.8477067,150.697921 C41.753628,150.149401 41.9354827,149.589709 42.3340065,149.201245 L43.3871549,148.174679 L41.9317396,147.963194 C41.3809933,147.883166 40.9048915,147.537258 40.6585903,147.038197 L40.0077087,145.719367 L39.3568272,147.038197 C39.110526,147.537258 38.6344242,147.883166 38.0836779,147.963194 L36.6282625,148.174679 L37.681411,149.201245 C38.0799347,149.589709 38.2617894,150.149401 38.1677107,150.697921 L37.9190961,152.147456 L39.2208592,151.463079 Z M34.0077087,156.963636 L34.0077087,155.763636 L46.0077087,155.763636 L46.0077087,156.963636 L34.0077087,156.963636 Z M36.1895269,159.145455 L36.1895269,157.945455 L43.8258905,157.945455 L43.8258905,159.145455 L36.1895269,159.145455 Z" id="wodepingjia" fill="#6D6D6E" fill-rule="nonzero"></path>
    </g>
</svg>