<?xml version="1.0" encoding="UTF-8" standalone="no"?>
<svg width="18px" height="18px" viewBox="0 0 18 18" version="1.1" xmlns="http://www.w3.org/2000/svg" xmlns:xlink="http://www.w3.org/1999/xlink">
    <!-- Generator: Sketch 48.1 (47250) - http://www.bohemiancoding.com/sketch -->
    <title>xiazai app</title>
    <desc>Created with Sketch.</desc>
    <defs></defs>
    <g id="icon" stroke="none" stroke-width="1" fill="none" fill-rule="evenodd" transform="translate(-107.000000, -143.000000)">
        <path d="M113.709091,144.472727 L108.362691,144.472727 L108.362691,143.272727 L113.818182,143.272727 C114.420674,143.272727 114.909091,143.761144 114.909091,144.363636 L114.909091,149.818182 C114.909091,150.420674 114.420674,150.909091 113.818182,150.909091 L108.363636,150.909091 C107.761144,150.909091 107.272727,150.420674 107.272727,149.818182 L107.272727,145.447575 L108.472727,145.447575 L108.472727,149.709091 L113.709091,149.709091 L113.709091,144.472727 Z M108.363636,153.090909 L113.818182,153.090909 C114.420674,153.090909 114.909091,153.579326 114.909091,154.181818 L114.909091,159.636364 C114.909091,160.238856 114.420674,160.727273 113.818182,160.727273 L108.363636,160.727273 C107.761144,160.727273 107.272727,160.238856 107.272727,159.636364 L107.272727,154.181818 C107.272727,153.579326 107.761144,153.090909 108.363636,153.090909 Z M108.472727,159.527273 L113.709091,159.527273 L113.709091,154.290909 L108.472727,154.290909 L108.472727,159.527273 Z M123.636364,143.272727 C124.238856,143.272727 124.727273,143.761144 124.727273,144.363636 L124.727273,149.818182 C124.727273,150.420674 124.238856,150.909091 123.636364,150.909091 L118.181818,150.909091 C117.579326,150.909091 117.090909,150.420674 117.090909,149.818182 L117.090909,144.363636 C117.090909,143.761144 117.579326,143.272727 118.181818,143.272727 L123.636364,143.272727 Z M118.290909,149.709091 L123.527273,149.709091 L123.527273,144.472727 L118.290909,144.472727 L118.290909,149.709091 Z M123.636364,153.090909 C124.238856,153.090909 124.727273,153.579326 124.727273,154.181818 L124.727273,159.636364 C124.727273,160.238856 124.238856,160.727273 123.636364,160.727273 L118.181818,160.727273 C117.579326,160.727273 117.090909,160.238856 117.090909,159.636364 L117.090909,154.181818 C117.090909,153.579326 117.579326,153.090909 118.181818,153.090909 L123.636364,153.090909 Z M118.290909,159.527273 L123.527273,159.527273 L123.527273,154.290909 L118.290909,154.290909 L118.290909,159.527273 Z" id="xiazai-app" fill="#6D6D6E" fill-rule="nonzero"></path>
    </g>
</svg>