<?xml version="1.0" encoding="UTF-8" standalone="no"?>
<svg width="11px" height="11px" viewBox="0 0 11 11" version="1.1" xmlns="http://www.w3.org/2000/svg" xmlns:xlink="http://www.w3.org/1999/xlink">
    <!-- Generator: Sketch 48.1 (47250) - http://www.bohemiancoding.com/sketch -->
    <title>xing-huise</title>
    <desc>Created with Sketch.</desc>
    <defs></defs>
    <g id="icon" stroke="none" stroke-width="1" fill="none" fill-rule="evenodd" transform="translate(-106.000000, -30.000000)">
        <path d="M111.905297,39.176702 C111.680494,39.0324689 111.317413,39.0315726 111.091214,39.176702 L108.356942,40.9310064 C108.132139,41.0752395 107.996604,40.9875503 108.057226,40.7219581 L108.810882,37.4201035 C108.870156,37.1604162 108.757092,36.8054003 108.555565,36.6246602 L106.11954,34.4398981 C105.919258,34.2602742 105.979847,34.0960984 106.232588,34.0750562 L109.428007,33.8090188 C109.690724,33.7871461 109.980607,33.5750929 110.080436,33.3228592 L111.321517,30.1870782 C111.419127,29.9404524 111.575164,29.9348445 111.674993,30.1870782 L112.916074,33.3228592 C113.013684,33.569485 113.315762,33.7879766 113.568503,33.8090188 L116.763922,34.0750562 C117.026639,34.0969289 117.078497,34.259158 116.876971,34.4398981 L114.440945,36.6246602 C114.240663,36.8042841 114.125006,37.1545113 114.185628,37.4201035 L114.939284,40.7219581 C114.998558,40.9816454 114.865768,41.0761358 114.639568,40.9310064 L111.905297,39.176702 Z" id="xing-huise" fill="#DDDDDE"></path>
    </g>
</svg>