<?xml version="1.0" encoding="UTF-8" standalone="no"?>
<svg width="11px" height="11px" viewBox="0 0 11 11" version="1.1" xmlns="http://www.w3.org/2000/svg" xmlns:xlink="http://www.w3.org/1999/xlink">
    <!-- Generator: Sketch 48.1 (47250) - http://www.bohemiancoding.com/sketch -->
    <title>xing-chengse</title>
    <desc>Created with Sketch.</desc>
    <defs></defs>
    <g id="icon" stroke="none" stroke-width="1" fill="none" fill-rule="evenodd" transform="translate(-68.000000, -30.000000)">
        <path d="M73.9052965,39.176702 C73.6804938,39.0324689 73.3174134,39.0315726 73.0912138,39.176702 L70.3569421,40.9310064 C70.1321393,41.0752395 69.9966041,40.9875503 70.0572262,40.7219581 L70.8108822,37.4201035 C70.8701565,37.1604162 70.7570917,36.8054003 70.5555652,36.6246602 L68.1195396,34.4398981 C67.9192576,34.2602742 67.9798471,34.0960984 68.2325878,34.0750562 L71.4280073,33.8090188 C71.6907241,33.7871461 71.980607,33.5750929 72.0804361,33.3228592 L73.3215172,30.1870782 C73.4191269,29.9404524 73.5751639,29.9348445 73.6749931,30.1870782 L74.9160741,33.3228592 C75.0136838,33.569485 75.3157622,33.7879766 75.5685029,33.8090188 L78.7639224,34.0750562 C79.0266392,34.0969289 79.0784972,34.259158 78.8769707,34.4398981 L76.4409451,36.6246602 C76.2406631,36.8042841 76.125006,37.1545113 76.185628,37.4201035 L76.9392841,40.7219581 C76.9985583,40.9816454 76.8657679,41.0761358 76.6395682,40.9310064 L73.9052965,39.176702 Z" id="xing-chengse" fill="#FF6C00"></path>
    </g>
</svg>