<?xml version="1.0" encoding="UTF-8" standalone="no"?>
<svg width="18px" height="18px" viewBox="0 0 18 18" version="1.1" xmlns="http://www.w3.org/2000/svg" xmlns:xlink="http://www.w3.org/1999/xlink">
    <!-- Generator: Sketch 48.1 (47250) - http://www.bohemiancoding.com/sketch -->
    <title>xuexi-chengse</title>
    <desc>Created with Sketch.</desc>
    <defs></defs>
    <g id="icon" stroke="none" stroke-width="1" fill="none" fill-rule="evenodd" transform="translate(-71.000000, -59.000000)">
        <path d="M75,59 L75,77 L72.9950893,77 C71.8932319,77 71,76.1073772 71,75.0049107 L71,60.9950893 C71,59.8932319 71.8926228,59 72.9950893,59 L75,59 Z M76,59 L87.0049107,59 C88.1067681,59 89,59.8926228 89,60.9950893 L89,75.0049107 C89,76.1067681 88.1073772,77 87.0049107,77 L76,77 L76,59 Z M79,63 L79,64 L85,64 L85,63 L79,63 Z M79,66 L79,67 L85,67 L85,66 L79,66 Z" id="xuexi-chengse" fill="#FF6C00"></path>
    </g>
</svg>