<?xml version="1.0" encoding="UTF-8" standalone="no"?>
<svg width="24px" height="20px" viewBox="0 0 24 20" version="1.1" xmlns="http://www.w3.org/2000/svg" xmlns:xlink="http://www.w3.org/1999/xlink">
    <!-- Generator: Sketch 48.1 (47250) - http://www.bohemiancoding.com/sketch -->
    <title>youhuiquan</title>
    <desc>Created with Sketch.</desc>
    <defs>
        <linearGradient x1="100%" y1="50%" x2="0%" y2="50%" id="linearGradient-1">
            <stop stop-color="#FF3800" offset="0%"></stop>
            <stop stop-color="#FF6C00" offset="100%"></stop>
        </linearGradient>
    </defs>
    <g id="icon" stroke="none" stroke-width="1" fill="none" fill-rule="evenodd" transform="translate(-232.000000, -98.000000)">
        <path d="M256,114 L256,116 C256,117.104569 255.104569,118 254,118 L234,118 C232.895431,118 232,117.104569 232,116 L232,114 C233.104569,114 234,113.104569 234,112 C234,110.895431 233.104569,110 232,110 L232,106 C233.104569,106 234,105.104569 234,104 C234,102.895431 233.104569,102 232,102 L232,100 C232,98.8954305 232.895431,98 234,98 L254,98 C255.104569,98 256,98.8954305 256,100 L256,102 C254.895431,102 254,102.895431 254,104 C254,105.104569 254.895431,106 256,106 L256,110 C254.895431,110 254,110.895431 254,112 C254,113.104569 254.895431,114 256,114 Z M239,104.54657 C238.447715,104.54657 238,104.994285 238,105.54657 C238,106.098855 238.447715,106.54657 239,106.54657 L245,106.54657 C245.552285,106.54657 246,106.098855 246,105.54657 C246,104.994285 245.552285,104.54657 245,104.54657 L239,104.54657 Z M239,109.54657 C238.447715,109.54657 238,109.994285 238,110.54657 C238,111.098855 238.447715,111.54657 239,111.54657 L249,111.54657 C249.552285,111.54657 250,111.098855 250,110.54657 C250,109.994285 249.552285,109.54657 249,109.54657 L239,109.54657 Z" id="youhuiquan" fill="url(#linearGradient-1)"></path>
    </g>
</svg>