<?xml version="1.0" encoding="UTF-8" standalone="no"?>
<svg width="18px" height="18px" viewBox="0 0 18 18" version="1.1" xmlns="http://www.w3.org/2000/svg" xmlns:xlink="http://www.w3.org/1999/xlink">
    <!-- Generator: Sketch 48.1 (47250) - http://www.bohemiancoding.com/sketch -->
    <title>zaixianhaoke-huise</title>
    <desc>Created with Sketch.</desc>
    <defs></defs>
    <g id="icon" stroke="none" stroke-width="1" fill="none" fill-rule="evenodd" transform="translate(-231.000000, -59.000000)">
        <path d="M231,60.9950893 C231,59.8932319 231.892623,59 232.995089,59 L247.004911,59 C248.106768,59 249,59.8926228 249,60.9950893 L249,75.0049107 C249,76.1067681 248.107377,77 247.004911,77 L232.995089,77 C231.893232,77 231,76.1073772 231,75.0049107 L231,60.9950893 Z M232,60.9950893 L232,75.0049107 C232,75.5548349 232.445259,76 232.995089,76 L247.004911,76 C247.554835,76 248,75.554741 248,75.0049107 L248,60.9950893 C248,60.4451651 247.554741,60 247.004911,60 L232.995089,60 C232.445165,60 232,60.445259 232,60.9950893 Z M237,63.5 C237,63.2238576 237.222473,63 237.509666,63 L245.490334,63 C245.771815,63 246,63.2319336 246,63.5 C246,63.7761424 245.777527,64 245.490334,64 L237.509666,64 C237.228185,64 237,63.7680664 237,63.5 Z M237,68 C237,67.7238576 237.222473,67.5 237.509666,67.5 L245.490334,67.5 C245.771815,67.5 246,67.7319336 246,68 C246,68.2761424 245.777527,68.5 245.490334,68.5 L237.509666,68.5 C237.228185,68.5 237,68.2680664 237,68 Z M237,72.5 C237,72.2238576 237.222473,72 237.509666,72 L245.490334,72 C245.771815,72 246,72.2319336 246,72.5 C246,72.7761424 245.777527,73 245.490334,73 L237.509666,73 C237.228185,73 237,72.7680664 237,72.5 Z M234.5,64 C234.223858,64 234,63.7761424 234,63.5 C234,63.2238576 234.223858,63 234.5,63 C234.776142,63 235,63.2238576 235,63.5 C235,63.7761424 234.776142,64 234.5,64 Z M234.5,68.5 C234.223858,68.5 234,68.2761424 234,68 C234,67.7238576 234.223858,67.5 234.5,67.5 C234.776142,67.5 235,67.7238576 235,68 C235,68.2761424 234.776142,68.5 234.5,68.5 Z M234.5,73 C234.223858,73 234,72.7761424 234,72.5 C234,72.2238576 234.223858,72 234.5,72 C234.776142,72 235,72.2238576 235,72.5 C235,72.7761424 234.776142,73 234.5,73 Z" id="zaixianhaoke-huise" fill="#6D6D6E" fill-rule="nonzero"></path>
    </g>
</svg>