<?xml version="1.0" encoding="UTF-8" standalone="no"?>
<svg width="18px" height="18px" viewBox="0 0 18 18" version="1.1" xmlns="http://www.w3.org/2000/svg" xmlns:xlink="http://www.w3.org/1999/xlink">
    <!-- Generator: Sketch 48.1 (47250) - http://www.bohemiancoding.com/sketch -->
    <title>zaixianhaoke-chengse</title>
    <desc>Created with Sketch.</desc>
    <defs></defs>
    <g id="icon" stroke="none" stroke-width="1" fill="none" fill-rule="evenodd" transform="translate(-111.000000, -59.000000)">
        <path d="M111,60.9950893 C111,59.8932319 111.892623,59 112.995089,59 L127.004911,59 C128.106768,59 129,59.8926228 129,60.9950893 L129,75.0049107 C129,76.1067681 128.107377,77 127.004911,77 L112.995089,77 C111.893232,77 111,76.1073772 111,75.0049107 L111,60.9950893 Z M117,63.5 C117,63.7680664 117.228185,64 117.509666,64 L125.490334,64 C125.777527,64 126,63.7761424 126,63.5 C126,63.2319336 125.771815,63 125.490334,63 L117.509666,63 C117.222473,63 117,63.2238576 117,63.5 Z M117,68 C117,68.2680664 117.228185,68.5 117.509666,68.5 L125.490334,68.5 C125.777527,68.5 126,68.2761424 126,68 C126,67.7319336 125.771815,67.5 125.490334,67.5 L117.509666,67.5 C117.222473,67.5 117,67.7238576 117,68 Z M117,72.5 C117,72.7680664 117.228185,73 117.509666,73 L125.490334,73 C125.777527,73 126,72.7761424 126,72.5 C126,72.2319336 125.771815,72 125.490334,72 L117.509666,72 C117.222473,72 117,72.2238576 117,72.5 Z M114.5,64 C114.776142,64 115,63.7761424 115,63.5 C115,63.2238576 114.776142,63 114.5,63 C114.223858,63 114,63.2238576 114,63.5 C114,63.7761424 114.223858,64 114.5,64 Z M114.5,68.5 C114.776142,68.5 115,68.2761424 115,68 C115,67.7238576 114.776142,67.5 114.5,67.5 C114.223858,67.5 114,67.7238576 114,68 C114,68.2761424 114.223858,68.5 114.5,68.5 Z M114.5,73 C114.776142,73 115,72.7761424 115,72.5 C115,72.2238576 114.776142,72 114.5,72 C114.223858,72 114,72.2238576 114,72.5 C114,72.7761424 114.223858,73 114.5,73 Z" id="zaixianhaoke-chengse" fill="#FF6C00"></path>
    </g>
</svg>