<?xml version="1.0" encoding="UTF-8" standalone="no"?>
<svg width="21px" height="19px" viewBox="0 0 21 19" version="1.1" xmlns="http://www.w3.org/2000/svg" xmlns:xlink="http://www.w3.org/1999/xlink">
    <!-- Generator: Sketch 48.1 (47250) - http://www.bohemiancoding.com/sketch -->
    <title>zixunkefu</title>
    <desc>Created with Sketch.</desc>
    <defs></defs>
    <g id="icon" stroke="none" stroke-width="1" fill="none" fill-rule="evenodd" transform="translate(-143.000000, -143.000000)">
        <path d="M147.054545,159.697072 L149.394453,158.137133 C149.493013,158.071426 149.608818,158.036364 149.727273,158.036364 L156.272727,158.036364 C156.543849,158.036364 156.763636,157.816576 156.763636,157.545455 L156.763636,155.908453 L157.963636,155.908453 L157.963636,157.545455 C157.963636,158.479318 157.206591,159.236364 156.272727,159.236364 L149.908938,159.236364 L146.787366,161.317412 C146.388633,161.583234 145.854545,161.297399 145.854545,160.818182 L145.854545,159.236364 L145.363636,159.236364 C144.429773,159.236364 143.672727,158.479318 143.672727,157.545455 L143.672727,149.909091 C143.672727,148.975228 144.429773,148.218182 145.363636,148.218182 L148.129504,148.218182 L148.129504,149.418182 L145.363636,149.418182 C145.092515,149.418182 144.872727,149.637969 144.872727,149.909091 L144.872727,157.545455 C144.872727,157.816576 145.092515,158.036364 145.363636,158.036364 L146.454545,158.036364 C146.785916,158.036364 147.054545,158.304993 147.054545,158.636364 L147.054545,159.697072 Z M160.303544,156.953776 L157.181971,154.872727 L150.818182,154.872727 C149.884319,154.872727 149.127273,154.115681 149.127273,153.181818 L149.127273,145.545455 C149.127273,144.611591 149.884319,143.854545 150.818182,143.854545 L161.727273,143.854545 C162.661136,143.854545 163.418182,144.611591 163.418182,145.545455 L163.418182,153.181818 C163.418182,154.115681 162.661136,154.872727 161.727273,154.872727 L161.236364,154.872727 L161.236364,156.454545 C161.236364,156.933763 160.702276,157.219598 160.303544,156.953776 Z M157.696456,153.773497 L160.036364,155.333435 L160.036364,154.272727 C160.036364,153.941356 160.304993,153.672727 160.636364,153.672727 L161.727273,153.672727 C161.998394,153.672727 162.218182,153.45294 162.218182,153.181818 L162.218182,145.545455 C162.218182,145.274333 161.998394,145.054545 161.727273,145.054545 L150.818182,145.054545 C150.54706,145.054545 150.327273,145.274333 150.327273,145.545455 L150.327273,153.181818 C150.327273,153.45294 150.54706,153.672727 150.818182,153.672727 L157.363636,153.672727 C157.482091,153.672727 157.597896,153.70779 157.696456,153.773497 Z M152.909091,150.545455 C152.356806,150.545455 151.909091,150.097739 151.909091,149.545455 C151.909091,148.99317 152.356806,148.545455 152.909091,148.545455 C153.461376,148.545455 153.909091,148.99317 153.909091,149.545455 C153.909091,150.097739 153.461376,150.545455 152.909091,150.545455 Z M156.454545,150.545455 C155.902261,150.545455 155.454545,150.097739 155.454545,149.545455 C155.454545,148.99317 155.902261,148.545455 156.454545,148.545455 C157.00683,148.545455 157.454545,148.99317 157.454545,149.545455 C157.454545,150.097739 157.00683,150.545455 156.454545,150.545455 Z M160,150.545455 C159.447715,150.545455 159,150.097739 159,149.545455 C159,148.99317 159.447715,148.545455 160,148.545455 C160.552285,148.545455 161,148.99317 161,149.545455 C161,150.097739 160.552285,150.545455 160,150.545455 Z" id="zixunkefu" fill="#6D6D6E" fill-rule="nonzero"></path>
    </g>
</svg>