<?xml version="1.0" encoding="UTF-8" standalone="no"?>
<svg width="10px" height="17px" viewBox="0 0 10 17" version="1.1" xmlns="http://www.w3.org/2000/svg" xmlns:xlink="http://www.w3.org/1999/xlink">
    <!-- Generator: Sketch 48.1 (47250) - http://www.bohemiancoding.com/sketch -->
    <title>2@1.5x</title>
    <desc>Created with Sketch.</desc>
    <defs></defs>
    <g id="app-切图和标注" stroke="none" stroke-width="1" fill="none" fill-rule="evenodd" transform="translate(-905.000000, -119.000000)">
        <path d="M905,136 L905,133.721769 L911.847172,125.487755 C912.111915,125.156234 912.292418,124.847847 912.388688,124.562585 C912.452868,124.292742 912.484958,124.038323 912.484958,123.79932 C912.484958,123.167117 912.280387,122.615875 911.871239,122.145578 C911.446047,121.675281 910.844368,121.432426 910.066185,121.417007 C909.37625,121.417007 908.80265,121.629023 908.345367,122.053061 C907.872039,122.4771 907.591256,123.074599 907.503008,123.845578 L905,123.845578 C905.06418,122.442397 905.553545,121.282091 906.468111,120.364626 C907.390699,119.47029 908.525866,119.01542 909.873646,119 C911.381877,119.01542 912.60529,119.478 913.543923,120.387755 C914.498601,121.2898 914.983955,122.434687 915,123.822449 C915,124.932659 914.647015,125.919497 913.941035,126.782993 L908.297232,133.582993 L915,133.582993 L915,136 L905,136 Z" id="2" fill="#C23ED6"></path>
    </g>
</svg>