<?xml version="1.0" encoding="UTF-8" standalone="no"?>
<svg width="10px" height="17px" viewBox="0 0 10 17" version="1.1" xmlns="http://www.w3.org/2000/svg" xmlns:xlink="http://www.w3.org/1999/xlink">
    <!-- Generator: Sketch 48.1 (47250) - http://www.bohemiancoding.com/sketch -->
    <title>6@1.5x</title>
    <desc>Created with Sketch.</desc>
    <defs></defs>
    <g id="app-切图和标注" stroke="none" stroke-width="1" fill="none" fill-rule="evenodd" transform="translate(-962.000000, -119.000000)">
        <path d="M962,131.182186 L962,123.806343 C962.016122,122.261576 962.536043,121.072429 963.559779,120.238866 C964.519028,119.412951 965.663661,119 966.993713,119 C968.186728,119 969.246723,119.321184 970.173728,119.963563 C971.076551,120.621236 971.652897,121.565671 971.902786,122.796896 L969.303153,122.796896 C968.908169,121.879213 968.138363,121.412731 966.993713,121.397436 C965.381529,121.428025 964.559328,122.280693 964.527085,123.955466 L964.527085,125.526991 C965.728161,125.167565 966.848612,124.995501 967.88847,125.010796 C969.049242,125.010796 970.032659,125.377864 970.83875,126.112011 C971.62872,126.861452 972.015638,128.042952 971.999516,129.656545 L971.999516,131.182186 C971.967273,132.719306 971.463473,133.904629 970.488102,134.738192 C969.528853,135.564107 968.364068,135.984705 966.993713,136 C965.663661,135.984705 964.519028,135.564107 963.559779,134.738192 C962.536043,133.904629 962.016122,132.719306 962,131.182186 Z M964.527085,129.679487 L964.527085,131.044534 C964.559328,132.734601 965.381529,133.587269 966.993713,133.602564 C968.597835,133.587269 969.424066,132.734601 969.472432,131.044534 L969.472432,129.679487 C969.424066,128.004715 968.597835,127.152047 966.993713,127.121457 C965.381529,127.152047 964.559328,128.004715 964.527085,129.679487 Z" id="6" fill="#C23ED6"></path>
    </g>
</svg>