<?xml version="1.0" encoding="UTF-8"?>
<svg width="12px" height="12px" viewBox="0 0 12 12" version="1.1" xmlns="http://www.w3.org/2000/svg" xmlns:xlink="http://www.w3.org/1999/xlink">
    <!-- Generator: Sketch 49 (51002) - http://www.bohemiancoding.com/sketch -->
    <title>ic-coupon</title>
    <desc>Created with Sketch.</desc>
    <defs></defs>
    <g id="Page-3" stroke="none" stroke-width="1" fill="none" fill-rule="evenodd">
        <g id="pc距离活动开始" transform="translate(-1330.000000, -488.000000)" fill="#FF3C00" fill-rule="nonzero">
            <g id="返回顶部-copy" transform="translate(1330.000000, 488.000000)">
                <path d="M10.2857143,6 C10.2857143,5.25349025 10.6069647,4.56236101 11.1428571,4.08313572 L11.1428571,1.71428571 L0.857142857,1.71428571 L0.857142857,4.08313572 C1.39303526,4.56236101 1.71428571,5.25349025 1.71428571,6 C1.71428571,6.74650975 1.39303526,7.43763899 0.857142857,7.91686428 L0.857142857,10.2857143 L11.1428571,10.2857143 L11.1428571,7.91686428 C10.6069647,7.43763899 10.2857143,6.74650975 10.2857143,6 Z M12,10.2857143 C12,10.7591012 11.6162441,11.1428571 11.1428571,11.1428571 L0.857142857,11.1428571 C0.383755929,11.1428571 5.79731787e-17,10.7591012 0,10.2857143 L0,7.48494481 C0.512401175,7.18853673 0.857142857,6.63452773 0.857142857,6 C0.857142857,5.36547227 0.512401175,4.81146327 3.44248439e-14,4.51505519 L0,1.71428571 C-5.79731787e-17,1.24089879 0.383755929,0.857142857 0.857142857,0.857142857 L11.1428571,0.857142857 C11.6162441,0.857142857 12,1.24089879 12,1.71428571 L12,4.51505519 C11.4875988,4.81146327 11.1428571,5.36547227 11.1428571,6 C11.1428571,6.63452773 11.4875988,7.18853673 12,7.48494481 L12,10.2857143 Z M8.79743304,2.57142857 L6.86886161,5.70118971 L8.39564732,5.70118971 L8.39564732,6.39177349 L6.60267857,6.39177349 L6.60267857,7.35239325 L8.39564732,7.35239325 L8.39564732,8.04740386 L6.60267857,8.04740386 L6.60267857,9.42857143 L5.62332589,9.42857143 L5.62332589,8.04740386 L3.77511161,8.04740386 L3.77511161,7.35239325 L5.62332589,7.35239325 L5.62332589,6.39177349 L3.77511161,6.39177349 L3.77511161,5.70118971 L5.33203125,5.70118971 L3.42857143,2.57142857 L4.54854911,2.57142857 L5.87946429,5.01060592 C5.95312537,5.14636239 6.03682989,5.31900661 6.13058036,5.52854376 L6.15066964,5.52854376 C6.21763426,5.36032379 6.30468696,5.18030161 6.41183036,4.98847183 L7.74776786,2.57142857 L8.79743304,2.57142857 Z" id="ic-coupon"></path>
            </g>
        </g>
    </g>
</svg>