<?xml version="1.0" encoding="UTF-8"?>
<svg width="20px" height="20px" viewBox="0 0 20 20" version="1.1" xmlns="http://www.w3.org/2000/svg" xmlns:xlink="http://www.w3.org/1999/xlink">
    <!-- Generator: Sketch 49 (51002) - http://www.bohemiancoding.com/sketch -->
    <title>ic-nav-share-18</title>
    <desc>Created with Sketch.</desc>
    <defs></defs>
    <g id="ic-nav-share-18" stroke="none" stroke-width="1" fill="none" fill-rule="evenodd">
        <path d="M16.747946,3.7941056 L12.6216345,1.41177858 L13.3716345,0.112740474 L18.7996983,3.24663453 C19.1584177,3.45374131 19.2813241,3.91243411 19.0742173,4.27115358 L15.9403233,9.6992173 L14.6412851,8.9492173 L16.7473513,5.30140367 C16.4772127,5.32962664 16.1846484,5.36960588 15.8735637,5.42378879 C14.5660388,5.65152588 13.2725517,6.08038256 12.0687121,6.7562223 C9.49803408,8.19940998 7.62485229,10.59292 6.72760688,14.1819017 L5.27239312,13.8180983 C6.27138278,9.82213965 8.40922028,7.0904584 11.33441,5.44824663 C12.697217,4.68316198 14.1505339,4.2013136 15.6161774,3.94603635 C16.021543,3.87543214 16.4007375,3.82616167 16.747946,3.7941056 Z M8,1 L8,2.5 L1.99810135,2.5 C1.71826196,2.5 1.5,2.71852778 1.5,2.99508929 L1.5,17.0049107 C1.5,17.2786689 1.7213778,17.5 1.99508929,17.5 L16.0049107,17.5 C16.2781935,17.5 16.5,17.2778327 16.5,17.0020869 L16.5,13 L18,13 L18,17.0020869 C18,18.1055038 17.1073772,19 16.0049107,19 L1.99508929,19 C0.893231902,19 0,18.1073772 0,17.0049107 L0,2.99508929 C0,1.8932319 0.886706352,1 1.99810135,1 L8,1 Z" id="ic-nav-share" fill="#3D3D3E" fill-rule="nonzero"></path>
    </g>
</svg>