<?xml version="1.0" encoding="UTF-8"?>
<svg width="16px" height="20px" viewBox="0 0 16 20" version="1.1" xmlns="http://www.w3.org/2000/svg" xmlns:xlink="http://www.w3.org/1999/xlink">
    <!-- Generator: Sketch 49 (51002) - http://www.bohemiancoding.com/sketch -->
    <title>ic-ppt</title>
    <desc>Created with Sketch.</desc>
    <defs></defs>
    <g id="Page-1" stroke="none" stroke-width="1" fill="none" fill-rule="evenodd">
        <g id="聊天-看视频状态" transform="translate(-282.000000, -310.000000)" fill="#FFFFFF" fill-rule="nonzero">
            <g id="Group-6" transform="translate(279.000000, 309.000000)">
                <path d="M13.1467843,2.3 L4.30934715,2.3 C4.30707444,2.3 4.30395873,8.09591471 4.3,19.6877441 C4.3,19.6962014 8.76355095,19.7002867 17.6906528,19.7 C17.6929256,19.7 17.6960413,15.466146 17.7,6.99843803 L13.1467843,2.3 Z M13.6972537,1 L19,6.47187448 L19,19.6877441 C19,20.412483 18.411576,21 17.6906528,21 L4.30934715,21 C3.58621469,21 3,20.423008 3,19.6877441 L3,2.31225586 C3,1.58751696 3.58842397,1 4.30934715,1 L13.6972537,1 Z M7,10.65 C6.64101491,10.65 6.35,10.3589851 6.35,10 C6.35,9.64101491 6.64101491,9.35 7,9.35 L15,9.35 C15.3589851,9.35 15.65,9.64101491 15.65,10 C15.65,10.3589851 15.3589851,10.65 15,10.65 L7,10.65 Z M7,14.65 C6.64101491,14.65 6.35,14.3589851 6.35,14 C6.35,13.6410149 6.64101491,13.35 7,13.35 L11,13.35 C11.3589851,13.35 11.65,13.6410149 11.65,14 C11.65,14.3589851 11.3589851,14.65 11,14.65 L7,14.65 Z M14.3,2.3 L14.3,5.69999999 L17.6999999,5.6999999 L19,7 L18.1264356,6.99999989 L13.8696299,7 C13.3893466,7.00000001 13,6.60632326 13,6.14034631 L13,1 L14.3,2.3 Z" id="ic-ppt"></path>
            </g>
        </g>
    </g>
</svg>