<?xml version="1.0" encoding="UTF-8"?>
<svg width="22px" height="14px" viewBox="0 0 22 14" version="1.1" xmlns="http://www.w3.org/2000/svg" xmlns:xlink="http://www.w3.org/1999/xlink">
    <!-- Generator: Sketch 49 (51002) - http://www.bohemiancoding.com/sketch -->
    <title>ic-video</title>
    <desc>Created with Sketch.</desc>
    <defs></defs>
    <g id="Page-1" stroke="none" stroke-width="1" fill="none" fill-rule="evenodd">
        <g id="聊天-看ppt状态" transform="translate(-280.000000, -314.000000)" fill="#FFFFFF" fill-rule="nonzero">
            <g id="Group-16" transform="translate(279.000000, 308.000000)">
                <path d="M16.6111111,7.5144844 C16.4282112,7.50565338 16.1316645,7.5 15.6666667,7.5 L2.5,7.5 L2.5,18.5 L15.6666667,18.5 C16.1455892,18.5 16.4514011,18.4444825 16.6111111,18.3730193 L16.6111111,13.9172228 L21.5,16.3190876 L21.5,9.68091241 L16.6111111,12.0827772 L16.6111111,7.5144844 Z M19.6111111,8.93765628 L22.1033024,7.7132663 C22.5999217,7.46928195 23,7.7188656 23,8.26920511 L23,17.7307949 C23,18.278241 22.5985348,18.5300367 22.1033024,18.2867337 L19.6111111,17.0623437 L18.9496876,16.7373926 L18.1111111,16.3254079 L18.1111111,17.2597215 L18.1111111,17.9966573 L18.1111111,18.7272727 C17.9230769,19.4288636 17.3358462,20 15.6666667,20 L2.22222222,20 C1.58892308,20 1,19.4288636 1,18.7272727 L1,7.27272727 C1,6.63 1.58892308,6 2.22222222,6 L15.6666667,6 C17.3358462,6 17.9247692,6 18.1111111,7.27272727 L18.1111111,8.00334273 L18.1111111,8.74027852 L18.1111111,9.67459207 L18.9496876,9.26260741 L19.6111111,8.93765628 Z" id="ic-video"></path>
            </g>
        </g>
    </g>
</svg>